<svg width="36" height="37" viewBox="0 0 36 37" fill="none" xmlns="http://www.w3.org/2000/svg">
<rect y="0.399902" width="36" height="36" rx="10" fill="white"/>
<path d="M10.5 25.8999L21 15.3999M11.6025 18.7974L12.75 17.6499L13.8975 18.7974C14.3876 19.2894 14.6627 19.9555 14.6627 20.6499C14.6627 21.3443 14.3876 22.0104 13.8975 22.5024L12.75 23.6499L11.6025 22.5024C11.1124 22.0104 10.8373 21.3443 10.8373 20.6499C10.8373 19.9555 11.1124 19.2894 11.6025 18.7974V18.7974ZM14.6025 15.7974L15.75 14.6499L16.8975 15.7974C17.3876 16.2894 17.6627 16.9555 17.6627 17.6499C17.6627 18.3443 17.3876 19.0104 16.8975 19.5024L15.75 20.6499L14.6025 19.5024C14.1124 19.0104 13.8373 18.3443 13.8373 17.6499C13.8373 16.9555 14.1124 16.2894 14.6025 15.7974V15.7974ZM17.6025 12.7974L18.75 11.6499L19.8975 12.7974C20.3875 13.2894 20.6627 13.9555 20.6627 14.6499C20.6627 15.3443 20.3875 16.0104 19.8975 16.5024L18.75 17.6499L17.6025 16.5024C17.1124 16.0104 16.8373 15.3443 16.8373 14.6499C16.8373 13.9555 17.1124 13.2894 17.6025 12.7974V12.7974ZM24 10.8999H25.5V12.3999C25.5 13.1956 25.1839 13.9586 24.6213 14.5212C24.0587 15.0838 23.2956 15.3999 22.5 15.3999H21V13.8999C21 13.1043 21.3161 12.3412 21.8787 11.7786C22.4413 11.216 23.2043 10.8999 24 10.8999Z" stroke="black" stroke-width="1.66667" stroke-linecap="round" stroke-linejoin="round"/>
<path d="M17.6025 22.5024L18.75 23.6499L17.6025 24.7974C17.1105 25.2874 16.4444 25.5626 15.75 25.5626C15.0556 25.5626 14.3895 25.2874 13.8975 24.7974L12.75 23.6499L13.8975 22.5024C14.3895 22.0123 15.0556 21.7372 15.75 21.7372C16.4444 21.7372 17.1105 22.0123 17.6025 22.5024V22.5024ZM20.6025 19.5024L21.75 20.6499L20.6025 21.7974C20.1105 22.2874 19.4444 22.5626 18.75 22.5626C18.0556 22.5626 17.3895 22.2874 16.8975 21.7974L15.75 20.6499L16.8975 19.5024C17.3895 19.0123 18.0556 18.7372 18.75 18.7372C19.4444 18.7372 20.1105 19.0123 20.6025 19.5024V19.5024ZM23.6025 16.5024L24.75 17.6499L23.6025 18.7974C23.1105 19.2874 22.4444 19.5626 21.75 19.5626C21.0556 19.5626 20.3895 19.2874 19.8975 18.7974L18.75 17.6499L19.8975 16.5024C20.3895 16.0123 21.0556 15.7372 21.75 15.7372C22.4444 15.7372 23.1105 16.0123 23.6025 16.5024V16.5024Z" stroke="black" stroke-width="1.66667" stroke-linecap="round" stroke-linejoin="round"/>
</svg>
