<svg width="36" height="37" viewBox="0 0 36 37" fill="none" xmlns="http://www.w3.org/2000/svg">
<rect y="0.399902" width="36" height="36" rx="10" fill="white"/>
<mask id="mask0_20_2823" style="mask-type:alpha" maskUnits="userSpaceOnUse" x="8" y="8" width="20" height="21">
<rect x="8" y="8.3999" width="20" height="20" fill="#D9D9D9"/>
</mask>
<g mask="url(#mask0_20_2823)">
<path d="M17.9999 25.3999C17.736 25.3999 17.4791 25.3374 17.2291 25.2124C16.9791 25.0874 16.7708 24.8999 16.6041 24.6499L10.6041 15.6291C10.3402 15.2263 10.2466 14.7852 10.3233 14.3057C10.3994 13.8268 10.6249 13.4624 10.9999 13.2124C12.0416 12.5041 13.1527 11.9416 14.3333 11.5249C15.5138 11.1082 16.736 10.8999 17.9999 10.8999C19.2638 10.8999 20.486 11.1046 21.6666 11.5141C22.8471 11.9241 23.9583 12.4902 24.9999 13.2124C25.361 13.4624 25.5833 13.8268 25.6666 14.3057C25.7499 14.7852 25.6596 15.2263 25.3958 15.6291L19.3958 24.6499C19.2291 24.8999 19.0208 25.0874 18.7708 25.2124C18.5208 25.3374 18.2638 25.3999 17.9999 25.3999ZM17.9999 23.7332L24.0833 14.6082C23.1805 13.9832 22.2152 13.4866 21.1874 13.1182C20.1596 12.7505 19.0971 12.5666 17.9999 12.5666C16.9027 12.5666 15.8438 12.7505 14.8233 13.1182C13.8021 13.4866 12.8333 13.9832 11.9166 14.6082L17.9999 23.7332ZM15.9166 16.7332C16.2638 16.7332 16.5588 16.6116 16.8016 16.3682C17.0449 16.1255 17.1666 15.8305 17.1666 15.4832C17.1666 15.136 17.0449 14.841 16.8016 14.5982C16.5588 14.3549 16.2638 14.2332 15.9166 14.2332C15.5694 14.2332 15.2744 14.3549 15.0316 14.5982C14.7883 14.841 14.6666 15.136 14.6666 15.4832C14.6666 15.8305 14.7883 16.1255 15.0316 16.3682C15.2744 16.6116 15.5694 16.7332 15.9166 16.7332ZM17.9999 20.8999C18.3471 20.8999 18.6421 20.7782 18.8849 20.5349C19.1283 20.2921 19.2499 19.9971 19.2499 19.6499C19.2499 19.3027 19.1283 19.0077 18.8849 18.7649C18.6421 18.5216 18.3471 18.3999 17.9999 18.3999C17.6527 18.3999 17.3577 18.5216 17.1149 18.7649C16.8716 19.0077 16.7499 19.3027 16.7499 19.6499C16.7499 19.9971 16.8716 20.2921 17.1149 20.5349C17.3577 20.7782 17.6527 20.8999 17.9999 20.8999Z" fill="#1C1B1F"/>
</g>
</svg>
