<svg width="36" height="37" viewBox="0 0 36 37" fill="none" xmlns="http://www.w3.org/2000/svg">
<rect y="0.399902" width="36" height="36" rx="10" fill="white"/>
<mask id="mask0_20_2838" style="mask-type:alpha" maskUnits="userSpaceOnUse" x="8" y="8" width="20" height="21">
<rect x="8" y="8.3999" width="20" height="20" fill="#D9D9D9"/>
</mask>
<g mask="url(#mask0_20_2838)">
<path d="M17.9999 26.7332C16.1388 26.7332 14.5624 26.0874 13.2708 24.7957C11.9791 23.5041 11.3333 21.9277 11.3333 20.0666C11.3333 18.4971 11.7985 16.9902 12.7291 15.5457C13.6596 14.1013 14.9374 12.8374 16.5624 11.7541C16.868 11.5457 17.1841 11.5352 17.5108 11.7224C17.8369 11.9102 17.9999 12.1916 17.9999 12.5666V13.6499C17.9999 14.1221 18.1633 14.518 18.4899 14.8374C18.816 15.1568 19.2152 15.3166 19.6874 15.3166C19.9235 15.3166 20.1494 15.2646 20.3649 15.1607C20.5799 15.0563 20.7708 14.9068 20.9374 14.7124C21.0485 14.5735 21.191 14.4866 21.3649 14.4516C21.5383 14.4171 21.7013 14.4555 21.8541 14.5666C22.7291 15.1916 23.4166 15.9902 23.9166 16.9624C24.4166 17.9346 24.6666 18.9693 24.6666 20.0666C24.6666 21.9277 24.0208 23.5041 22.7291 24.7957C21.4374 26.0874 19.861 26.7332 17.9999 26.7332ZM12.9999 20.0666C12.9999 20.7888 13.1458 21.4727 13.4374 22.1182C13.7291 22.7643 14.1458 23.3305 14.6874 23.8166C14.6735 23.7471 14.6666 23.6846 14.6666 23.6291V23.4416C14.6666 22.9971 14.7499 22.5805 14.9166 22.1916C15.0833 21.8027 15.3263 21.4485 15.6458 21.1291L17.9999 18.8166L20.3541 21.1291C20.6735 21.4485 20.9166 21.8027 21.0833 22.1916C21.2499 22.5805 21.3333 22.9971 21.3333 23.4416V23.6291C21.3333 23.6846 21.3263 23.7471 21.3124 23.8166C21.8541 23.3305 22.2708 22.7643 22.5624 22.1182C22.8541 21.4727 22.9999 20.7888 22.9999 20.0666C22.9999 19.3721 22.8716 18.7157 22.6149 18.0974C22.3577 17.4796 21.986 16.9277 21.4999 16.4416C21.2221 16.6221 20.9305 16.7574 20.6249 16.8474C20.3194 16.938 20.0069 16.9832 19.6874 16.9832C18.8263 16.9832 18.0799 16.6985 17.4483 16.1291C16.816 15.5596 16.4513 14.8582 16.3541 14.0249C15.2708 14.9416 14.441 15.9171 13.8649 16.9516C13.2883 17.9866 12.9999 19.0249 12.9999 20.0666ZM17.9999 21.1499L16.8124 22.3166C16.6596 22.4693 16.5416 22.643 16.4583 22.8374C16.3749 23.0318 16.3333 23.2332 16.3333 23.4416C16.3333 23.886 16.4966 24.268 16.8233 24.5874C17.1494 24.9068 17.5416 25.0666 17.9999 25.0666C18.4583 25.0666 18.8508 24.9068 19.1774 24.5874C19.5035 24.268 19.6666 23.886 19.6666 23.4416C19.6666 23.2193 19.6249 23.0143 19.5416 22.8266C19.4583 22.6393 19.3402 22.4693 19.1874 22.3166L17.9999 21.1499Z" fill="#1C1B1F"/>
</g>
</svg>
