<svg width="36" height="37" viewBox="0 0 36 37" fill="none" xmlns="http://www.w3.org/2000/svg">
<rect y="0.399902" width="36" height="36" rx="10" fill="white"/>
<mask id="mask0_20_2808" style="mask-type:alpha" maskUnits="userSpaceOnUse" x="8" y="8" width="20" height="21">
<rect x="8" y="8.3999" width="20" height="20" fill="#D9D9D9"/>
</mask>
<g mask="url(#mask0_20_2808)">
<path d="M21.3334 26.7333C20.4028 26.7333 19.6981 26.5771 19.2192 26.2649C18.7398 25.9521 18.3334 25.6221 18.0001 25.2749C17.7362 24.9971 17.4828 24.7541 17.2401 24.5458C16.9967 24.3374 16.6876 24.2333 16.3126 24.2333C15.6876 24.2333 14.9931 24.1258 14.2292 23.9108C13.4653 23.6952 12.7467 23.3408 12.0734 22.8474C11.3995 22.3546 10.8334 21.7124 10.3751 20.9208C9.91673 20.1291 9.68062 19.1569 9.66674 18.0041C9.63896 15.6846 10.2117 13.7819 11.3851 12.2958C12.559 10.8096 14.2015 10.0666 16.3126 10.0666C17.2987 10.0666 18.132 10.2088 18.8126 10.4933C19.4931 10.7783 20.0801 11.136 20.5734 11.5666C21.0662 11.9971 21.4826 12.4727 21.8226 12.9933C22.1631 13.5144 22.4862 14.018 22.7917 14.5041C22.9584 14.7819 23.1251 15.0352 23.2917 15.2641C23.4584 15.4935 23.639 15.7055 23.8334 15.8999C24.6667 16.7333 25.2917 17.4624 25.7084 18.0874C26.1251 18.7124 26.3334 19.6569 26.3334 20.9208C26.3334 22.5874 25.8162 23.9727 24.7817 25.0766C23.7467 26.181 22.5973 26.7333 21.3334 26.7333ZM21.3334 25.0666C22.1251 25.0666 22.8784 24.6741 23.5934 23.8891C24.309 23.1046 24.6667 22.1152 24.6667 20.9208C24.6667 20.0041 24.5315 19.3305 24.2609 18.8999C23.9898 18.4694 23.4584 17.8583 22.6667 17.0666C22.3751 16.7888 22.1148 16.4796 21.8859 16.1391C21.6565 15.7991 21.4237 15.4485 21.1876 15.0874C20.6181 14.1846 20.014 13.3999 19.3751 12.7333C18.7362 12.0666 17.7153 11.7333 16.3126 11.7333C14.5209 11.7333 13.2362 12.3755 12.4584 13.6599C11.6806 14.9449 11.3056 16.386 11.3334 17.9833C11.3473 18.9138 11.5487 19.6777 11.9376 20.2749C12.3265 20.8721 12.7884 21.341 13.3234 21.6816C13.8578 22.0216 14.4028 22.2541 14.9584 22.3791C15.514 22.5041 15.9653 22.5666 16.3126 22.5666C17.0209 22.5666 17.5903 22.7369 18.0209 23.0774C18.4515 23.4174 18.8056 23.7333 19.0834 24.0249C19.389 24.3444 19.6842 24.598 19.9692 24.7858C20.2537 24.973 20.7084 25.0666 21.3334 25.0666ZM18.0001 21.3166C18.8056 21.3166 19.4931 21.0319 20.0626 20.4624C20.632 19.893 20.9167 19.2055 20.9167 18.3999C20.9167 17.5944 20.632 16.9069 20.0626 16.3374C19.4931 15.768 18.8056 15.4833 18.0001 15.4833C17.1945 15.4833 16.507 15.768 15.9376 16.3374C15.3681 16.9069 15.0834 17.5944 15.0834 18.3999C15.0834 19.2055 15.3681 19.893 15.9376 20.4624C16.507 21.0319 17.1945 21.3166 18.0001 21.3166Z" fill="#1C1B1F"/>
</g>
</svg>
