<svg width="24" height="24" viewBox="0 0 24 24" fill="none" xmlns="http://www.w3.org/2000/svg">
<rect opacity="0.01" width="24" height="24" fill="white"/>
<path fill-rule="evenodd" clip-rule="evenodd" d="M11.1094 5.22796C11.3928 5.53126 11.3918 6.02186 11.1072 6.32386L6.48794 11.2249L19.2727 11.2249L19.3714 11.232C19.7264 11.2833 20 11.6075 20 11.9998C20 12.4278 19.6744 12.7748 19.2727 12.7748L6.48946 12.7748L11.1072 17.6757L11.1778 17.7624C11.3896 18.0654 11.367 18.4959 11.1093 18.7716C10.8259 19.0749 10.3654 19.0759 10.0808 18.7739L4.23106 12.5662C4.09698 12.4327 4.01035 12.2458 4.00103 12.0373C3.99134 11.826 4.06243 11.6112 4.21428 11.4501L10.0809 5.22556L10.1626 5.15076C10.4478 4.92626 10.8517 4.95216 11.1094 5.22796Z" fill="#ffffff"/>
</svg>
