<svg width="24" height="24" viewBox="0 0 24 24" fill="none" xmlns="http://www.w3.org/2000/svg">
<rect opacity="0.01" width="24" height="24" fill="white"/>
<path fill-rule="evenodd" clip-rule="evenodd" d="M12.8906 5.22796C12.6072 5.53126 12.6082 6.02186 12.8928 6.32386L17.5121 11.2249H4.72726L4.62858 11.232C4.2736 11.2833 4 11.6075 4 11.9998C4 12.4278 4.32561 12.7748 4.72726 12.7748H17.5105L12.8928 17.6757L12.8222 17.7624C12.6104 18.0654 12.633 18.4959 12.8907 18.7716C13.1741 19.0749 13.6346 19.0759 13.9192 18.7739L19.7689 12.5662C19.903 12.4327 19.9897 12.2458 19.999 12.0373C20.0087 11.826 19.9376 11.6112 19.7857 11.4501L13.9191 5.22556L13.8374 5.15076C13.5522 4.92626 13.1483 4.95216 12.8906 5.22796Z" fill="#181818"/>
</svg>
