<svg width="14" height="14" viewBox="0 0 14 14" fill="none" xmlns="http://www.w3.org/2000/svg">
<mask id="mask0_20_2945" style="mask-type:alpha" maskUnits="userSpaceOnUse" x="0" y="0" width="14" height="14">
<rect width="14" height="14" fill="#D9D9D9"/>
</mask>
<g mask="url(#mask0_20_2945)">
<path d="M8.92508 9.74163L9.74175 8.92496L7.58342 6.76663V4.08329H6.41675V7.23329L8.92508 9.74163ZM7.00008 12.8333C6.19314 12.8333 5.4348 12.6801 4.72508 12.3736C4.01536 12.0676 3.398 11.652 2.873 11.127C2.348 10.602 1.93247 9.98468 1.62641 9.27496C1.31997 8.56524 1.16675 7.8069 1.16675 6.99996C1.16675 6.19302 1.31997 5.43468 1.62641 4.72496C1.93247 4.01524 2.348 3.39788 2.873 2.87288C3.398 2.34788 4.01536 1.93215 4.72508 1.62571C5.4348 1.31965 6.19314 1.16663 7.00008 1.16663C7.80703 1.16663 8.56536 1.31965 9.27508 1.62571C9.9848 1.93215 10.6022 2.34788 11.1272 2.87288C11.6522 3.39788 12.0677 4.01524 12.3737 4.72496C12.6802 5.43468 12.8334 6.19302 12.8334 6.99996C12.8334 7.8069 12.6802 8.56524 12.3737 9.27496C12.0677 9.98468 11.6522 10.602 11.1272 11.127C10.6022 11.652 9.9848 12.0676 9.27508 12.3736C8.56536 12.6801 7.80703 12.8333 7.00008 12.8333ZM7.00008 11.6666C8.29314 11.6666 9.39428 11.2122 10.3035 10.3034C11.2123 9.39415 11.6667 8.29302 11.6667 6.99996C11.6667 5.7069 11.2123 4.60577 10.3035 3.69654C9.39428 2.78771 8.29314 2.33329 7.00008 2.33329C5.70703 2.33329 4.60608 2.78771 3.69725 3.69654C2.78803 4.60577 2.33341 5.7069 2.33341 6.99996C2.33341 8.29302 2.78803 9.39415 3.69725 10.3034C4.60608 11.2122 5.70703 11.6666 7.00008 11.6666Z" fill="white"/>
</g>
</svg>
