<svg width="24" height="24" viewBox="0 0 24 24" fill="none" xmlns="http://www.w3.org/2000/svg">
<rect opacity="0.01" width="24" height="24" fill="white"/>
<path fill-rule="evenodd" clip-rule="evenodd" d="M11.1999 5.01559C12.4566 3.34132 14.8325 3.0024 16.5078 4.25881C18.1823 5.51565 18.52 7.893 17.2636 9.56702L16.0376 11.2004C16.018 11.2391 15.9948 11.2766 15.9678 11.3125C15.9409 11.3484 15.9113 11.3812 15.8796 11.4108L14.5307 13.208C13.0571 15.1713 11.3691 17.4201 10.5115 18.5621C9.48054 19.9363 8.00264 20.3744 6.86218 20.4847C6.28794 20.5402 5.77723 20.5157 5.41023 20.4777C5.22587 20.4586 5.07543 20.4359 4.96856 20.4174C4.91506 20.4081 4.8723 20.3999 4.84146 20.3937L4.80424 20.3859L4.79257 20.3833L4.78852 20.3824L4.78694 20.382C4.78664 20.382 4.78567 20.3817 4.95376 19.6508L4.30264 20.023L4.30148 20.021L4.29941 20.0173L4.29353 20.0068L4.27526 19.9734C4.26033 19.9456 4.2401 19.9071 4.21582 19.8586C4.16734 19.7618 4.10241 19.6246 4.0314 19.4539C3.89006 19.114 3.72102 18.6327 3.61214 18.0667C3.39538 16.9401 3.40574 15.3998 4.44782 14.0107L11.1999 5.01559ZM4.30264 20.023C4.40658 20.2045 4.58187 20.3349 4.78567 20.3817L4.95376 19.6508C4.30295 20.0236 4.3028 20.0233 4.30264 20.023ZM15.2092 9.80531L16.0639 8.66659C16.8235 7.65461 16.619 6.2178 15.6075 5.45865C14.5948 4.69924 13.1589 4.90437 12.3996 5.91602L11.5448 7.05476L15.2092 9.80531ZM10.6443 8.25439L14.3088 11.005L13.331 12.3076C11.8574 14.2708 10.1692 16.5198 9.31179 17.6618C8.62876 18.5723 7.62779 18.9037 6.71783 18.9917C6.26682 19.0353 5.8594 19.0161 5.56459 18.9856C5.52675 18.9817 5.49092 18.9776 5.45725 18.9735C5.44411 18.9435 5.43044 18.9116 5.41639 18.8778C5.30364 18.6067 5.17011 18.2251 5.08513 17.7834C4.91413 16.8945 4.95077 15.8399 5.64769 14.9109L10.6443 8.25439ZM12.5851 19.5077C12.5851 19.0935 12.9209 18.7577 13.3351 18.7577H19.7121C20.1264 18.7577 20.4621 19.0935 20.4621 19.5077C20.4621 19.9219 20.1264 20.2577 19.7121 20.2577H13.3351C12.9209 20.2577 12.5851 19.9219 12.5851 19.5077Z" fill="#181818"/>
</svg>
