<svg width="24" height="25" viewBox="0 0 24 25" fill="none" xmlns="http://www.w3.org/2000/svg">
<rect opacity="0.01" y="0.400024" width="24" height="24" fill="white"/>
<path fill-rule="evenodd" clip-rule="evenodd" d="M3.05005 12.4369C3.05005 8.82746 3.66147 6.65958 4.96051 5.36053C6.25956 4.06149 8.42744 3.45007 12.0368 3.45007C15.6463 3.45007 17.8142 4.06149 19.1132 5.36053C20.4123 6.65958 21.0237 8.82746 21.0237 12.4369C21.0237 16.0464 20.4123 18.2143 19.1132 19.5133C17.8142 20.8124 15.6463 21.4238 12.0368 21.4238C8.42744 21.4238 6.25956 20.8124 4.96051 19.5133C3.66147 18.2143 3.05005 16.0464 3.05005 12.4369ZM12.0368 1.95007C8.34424 1.95007 5.6437 2.55603 3.89985 4.29987C2.156 6.04372 1.55005 8.74426 1.55005 12.4369C1.55005 16.1296 2.156 18.8301 3.89985 20.574C5.6437 22.3178 8.34424 22.9238 12.0368 22.9238C15.7295 22.9238 18.43 22.3178 20.1739 20.574C21.9177 18.8301 22.5237 16.1296 22.5237 12.4369C22.5237 8.74426 21.9177 6.04372 20.1739 4.29987C18.43 2.55603 15.7295 1.95007 12.0368 1.95007ZM8.45892 11.6869C8.04471 11.6869 7.70892 12.0227 7.70892 12.4369C7.70892 12.8511 8.04471 13.1869 8.45892 13.1869H15.6147C16.0289 13.1869 16.3647 12.8511 16.3647 12.4369C16.3647 12.0227 16.0289 11.6869 15.6147 11.6869H8.45892Z" fill="#181818"/>
</svg>
