<svg width="24" height="24" viewBox="0 0 24 24" fill="none" xmlns="http://www.w3.org/2000/svg">
<rect opacity="0.01" width="24" height="24" fill="white"/>
<path fill-rule="evenodd" clip-rule="evenodd" d="M4.08061 11.4314C4.08061 7.35137 7.46173 4.04388 11.6326 4.04388C15.8034 4.04388 19.1845 7.35137 19.1845 11.4314C19.1845 15.5114 15.8034 18.8188 11.6326 18.8188C7.46173 18.8188 4.08061 15.5114 4.08061 11.4314ZM11.6326 2.3999C6.53357 2.3999 2.40002 6.44342 2.40002 11.4314C2.40002 16.4193 6.53357 20.4628 11.6326 20.4628C13.7683 20.4628 15.7347 19.7534 17.2989 18.5623L20.1663 21.3599C20.4949 21.6805 21.0269 21.6798 21.3547 21.3584C21.6824 21.037 21.6817 20.5165 21.3531 20.1959L18.5269 17.4384C19.9813 15.8423 20.8651 13.7378 20.8651 11.4314C20.8651 6.44342 16.7315 2.3999 11.6326 2.3999Z" fill="#181818"/>
</svg>
