<svg width="16" height="16" viewBox="0 0 16 16" fill="none" xmlns="http://www.w3.org/2000/svg">
<rect opacity="0.01" width="16" height="16" fill="white"/>
<path d="M11.5501 9.46473C11.3947 9.62327 11.3233 9.85253 11.3587 10.0773L11.892 13.1845C11.937 13.4479 11.8315 13.7144 11.6221 13.8666C11.4169 14.0245 11.1439 14.0434 10.9201 13.9171L8.26311 12.4583C8.17072 12.4065 8.06813 12.3787 7.96315 12.3755H7.80057C7.74417 12.3843 7.68898 12.4033 7.63859 12.4323L4.98093 13.8981C4.84955 13.9676 4.70077 13.9923 4.55499 13.9676C4.19984 13.8969 3.96287 13.5407 4.02106 13.1649L4.55499 10.0578C4.59039 9.83107 4.51899 9.60053 4.36362 9.43953L2.1973 7.22913C2.01612 7.04409 1.95313 6.76621 2.03592 6.51549C2.11631 6.2654 2.32148 6.08289 2.56925 6.04183L5.55086 5.5865C5.77763 5.56187 5.97681 5.41661 6.07879 5.20189L7.39262 2.36629C7.42382 2.30314 7.46401 2.24504 7.51261 2.19578L7.5666 2.15157C7.59479 2.11873 7.62719 2.09157 7.66319 2.06947L7.72858 2.04421L7.83057 2H8.08313C8.3087 2.02463 8.50727 2.16673 8.61106 2.37892L9.94227 5.20189C10.0383 5.40841 10.2249 5.55176 10.4402 5.5865L13.4218 6.04183C13.6738 6.07973 13.8844 6.26287 13.9677 6.51549C14.0463 6.76873 13.9785 7.04661 13.7938 7.22913L11.5501 9.46473V9.46473Z" fill="white"/>
</svg>
