<svg width="21" height="20" viewBox="0 0 21 20" fill="none" xmlns="http://www.w3.org/2000/svg">
<mask id="mask0_20_2983" style="mask-type:alpha" maskUnits="userSpaceOnUse" x="0" y="0" width="21" height="20">
<rect x="0.5" width="20" height="20" fill="#D9D9D9"/>
</mask>
<g mask="url(#mask0_20_2983)">
<path d="M10.4999 18.3333C8.63881 18.3333 7.06242 17.6875 5.77075 16.3958C4.47909 15.1042 3.83325 13.5278 3.83325 11.6667C3.83325 10.0972 4.29853 8.59027 5.22909 7.14583C6.15964 5.70139 7.43742 4.4375 9.06242 3.35416C9.36797 3.14583 9.68409 3.13528 10.0108 3.3225C10.3369 3.51028 10.4999 3.79166 10.4999 4.16666V5.25C10.4999 5.72222 10.6633 6.11805 10.9899 6.4375C11.316 6.75694 11.7152 6.91666 12.1874 6.91666C12.4235 6.91666 12.6494 6.86472 12.8649 6.76083C13.0799 6.65639 13.2708 6.50694 13.4374 6.3125C13.5485 6.17361 13.691 6.08666 13.8649 6.05166C14.0383 6.01722 14.2013 6.05555 14.3541 6.16666C15.2291 6.79166 15.9166 7.59027 16.4166 8.5625C16.9166 9.53472 17.1666 10.5694 17.1666 11.6667C17.1666 13.5278 16.5208 15.1042 15.2291 16.3958C13.9374 17.6875 12.361 18.3333 10.4999 18.3333ZM5.49992 11.6667C5.49992 12.3889 5.64575 13.0728 5.93742 13.7183C6.22909 14.3644 6.64575 14.9306 7.18742 15.4167C7.17353 15.3472 7.16659 15.2847 7.16659 15.2292V15.0417C7.16659 14.5972 7.24992 14.1806 7.41659 13.7917C7.58325 13.4028 7.82631 13.0486 8.14575 12.7292L10.4999 10.4167L12.8541 12.7292C13.1735 13.0486 13.4166 13.4028 13.5833 13.7917C13.7499 14.1806 13.8333 14.5972 13.8333 15.0417V15.2292C13.8333 15.2847 13.8263 15.3472 13.8124 15.4167C14.3541 14.9306 14.7708 14.3644 15.0624 13.7183C15.3541 13.0728 15.4999 12.3889 15.4999 11.6667C15.4999 10.9722 15.3716 10.3158 15.1149 9.6975C14.8577 9.07972 14.486 8.52777 13.9999 8.04166C13.7221 8.22222 13.4305 8.3575 13.1249 8.4475C12.8194 8.53805 12.5069 8.58333 12.1874 8.58333C11.3263 8.58333 10.5799 8.29861 9.94825 7.72916C9.31603 7.15972 8.95131 6.45833 8.85408 5.625C7.77075 6.54166 6.94103 7.51722 6.36492 8.55166C5.78825 9.58666 5.49992 10.625 5.49992 11.6667ZM10.4999 12.75L9.31242 13.9167C9.15964 14.0694 9.04158 14.2431 8.95825 14.4375C8.87492 14.6319 8.83325 14.8333 8.83325 15.0417C8.83325 15.4861 8.99659 15.8681 9.32325 16.1875C9.64936 16.5069 10.0416 16.6667 10.4999 16.6667C10.9583 16.6667 11.3508 16.5069 11.6774 16.1875C12.0035 15.8681 12.1666 15.4861 12.1666 15.0417C12.1666 14.8194 12.1249 14.6144 12.0416 14.4267C11.9583 14.2394 11.8402 14.0694 11.6874 13.9167L10.4999 12.75Z" fill="#1C1B1F"/>
</g>
</svg>
