<svg width="18" height="18" viewBox="0 0 18 18" fill="none" xmlns="http://www.w3.org/2000/svg">
<g clip-path="url(#clip0_20_2963)">
<path d="M1.5 16.5L12 6M2.6025 9.3975L3.75 8.25L4.8975 9.3975C5.38755 9.88948 5.6627 10.5556 5.6627 11.25C5.6627 11.9444 5.38755 12.6105 4.8975 13.1025L3.75 14.25L2.6025 13.1025C2.11245 12.6105 1.8373 11.9444 1.8373 11.25C1.8373 10.5556 2.11245 9.88948 2.6025 9.3975V9.3975ZM5.6025 6.3975L6.75 5.25L7.8975 6.3975C8.38755 6.88948 8.6627 7.5556 8.6627 8.25C8.6627 8.9444 8.38755 9.61052 7.8975 10.1025L6.75 11.25L5.6025 10.1025C5.11245 9.61052 4.8373 8.9444 4.8373 8.25C4.8373 7.5556 5.11245 6.88948 5.6025 6.3975V6.3975ZM8.6025 3.3975L9.75 2.25L10.8975 3.3975C11.3875 3.88948 11.6627 4.5556 11.6627 5.25C11.6627 5.9444 11.3875 6.61052 10.8975 7.1025L9.75 8.25L8.6025 7.1025C8.11245 6.61052 7.8373 5.9444 7.8373 5.25C7.8373 4.5556 8.11245 3.88948 8.6025 3.3975V3.3975ZM15 1.5H16.5V3C16.5 3.79565 16.1839 4.55871 15.6213 5.12132C15.0587 5.68393 14.2956 6 13.5 6H12V4.5C12 3.70435 12.3161 2.94129 12.8787 2.37868C13.4413 1.81607 14.2043 1.5 15 1.5Z" stroke="black" stroke-width="1.66667" stroke-linecap="round" stroke-linejoin="round"/>
<path d="M8.6025 13.1025L9.75 14.25L8.6025 15.3975C8.11052 15.8875 7.4444 16.1627 6.75 16.1627C6.0556 16.1627 5.38948 15.8875 4.8975 15.3975L3.75 14.25L4.8975 13.1025C5.38948 12.6124 6.0556 12.3373 6.75 12.3373C7.4444 12.3373 8.11052 12.6124 8.6025 13.1025V13.1025ZM11.6025 10.1025L12.75 11.25L11.6025 12.3975C11.1105 12.8875 10.4444 13.1627 9.75 13.1627C9.0556 13.1627 8.38948 12.8875 7.8975 12.3975L6.75 11.25L7.8975 10.1025C8.38948 9.61243 9.0556 9.33728 9.75 9.33728C10.4444 9.33728 11.1105 9.61243 11.6025 10.1025V10.1025ZM14.6025 7.10248L15.75 8.24998L14.6025 9.39748C14.1105 9.88753 13.4444 10.1627 12.75 10.1627C12.0556 10.1627 11.3895 9.88753 10.8975 9.39748L9.75 8.24998L10.8975 7.10248C11.3895 6.61243 12.0556 6.33728 12.75 6.33728C13.4444 6.33728 14.1105 6.61243 14.6025 7.10248V7.10248Z" stroke="black" stroke-width="1.66667" stroke-linecap="round" stroke-linejoin="round"/>
</g>
<defs>
<clipPath id="clip0_20_2963">
<rect width="18" height="18" fill="white"/>
</clipPath>
</defs>
</svg>
