<svg width="20" height="20" viewBox="0 0 20 20" fill="none" xmlns="http://www.w3.org/2000/svg">
<mask id="mask0_20_2977" style="mask-type:alpha" maskUnits="userSpaceOnUse" x="0" y="0" width="20" height="20">
<rect width="20" height="20" fill="#D9D9D9"/>
</mask>
<g mask="url(#mask0_20_2977)">
<path d="M9.99992 17C9.73603 17 9.47909 16.9375 9.22909 16.8125C8.97909 16.6875 8.77075 16.5 8.60409 16.25L2.60409 7.22917C2.3402 6.82639 2.24659 6.38528 2.32325 5.90583C2.39936 5.42694 2.62492 5.0625 2.99992 4.8125C4.04159 4.10417 5.1527 3.54167 6.33325 3.125C7.51381 2.70833 8.73603 2.5 9.99992 2.5C11.2638 2.5 12.486 2.70472 13.6666 3.11417C14.8471 3.52417 15.9583 4.09028 16.9999 4.8125C17.361 5.0625 17.5833 5.42694 17.6666 5.90583C17.7499 6.38528 17.6596 6.82639 17.3958 7.22917L11.3958 16.25C11.2291 16.5 11.0208 16.6875 10.7708 16.8125C10.5208 16.9375 10.2638 17 9.99992 17ZM9.99992 15.3333L16.0833 6.20833C15.1805 5.58333 14.2152 5.08667 13.1874 4.71833C12.1596 4.35056 11.0971 4.16667 9.99992 4.16667C8.9027 4.16667 7.84381 4.35056 6.82325 4.71833C5.80214 5.08667 4.83325 5.58333 3.91659 6.20833L9.99992 15.3333ZM7.91659 8.33333C8.26381 8.33333 8.55881 8.21167 8.80159 7.96833C9.04492 7.72556 9.16659 7.43056 9.16659 7.08333C9.16659 6.73611 9.04492 6.44111 8.80159 6.19833C8.55881 5.955 8.26381 5.83333 7.91659 5.83333C7.56936 5.83333 7.27436 5.955 7.03159 6.19833C6.78825 6.44111 6.66659 6.73611 6.66659 7.08333C6.66659 7.43056 6.78825 7.72556 7.03159 7.96833C7.27436 8.21167 7.56936 8.33333 7.91659 8.33333ZM9.99992 12.5C10.3471 12.5 10.6421 12.3783 10.8849 12.135C11.1283 11.8922 11.2499 11.5972 11.2499 11.25C11.2499 10.9028 11.1283 10.6078 10.8849 10.365C10.6421 10.1217 10.3471 10 9.99992 10C9.6527 10 9.3577 10.1217 9.11492 10.365C8.87159 10.6078 8.74992 10.9028 8.74992 11.25C8.74992 11.5972 8.87159 11.8922 9.11492 12.135C9.3577 12.3783 9.6527 12.5 9.99992 12.5Z" fill="#1C1B1F"/>
</g>
</svg>
