<svg width="21" height="20" viewBox="0 0 21 20" fill="none" xmlns="http://www.w3.org/2000/svg">
<mask id="mask0_20_2970" style="mask-type:alpha" maskUnits="userSpaceOnUse" x="0" y="0" width="21" height="20">
<rect x="0.5" width="20" height="20" fill="#D9D9D9"/>
</mask>
<g mask="url(#mask0_20_2970)">
<path d="M13.8334 18.3333C12.9028 18.3333 12.1981 18.1772 11.7192 17.865C11.2398 17.5522 10.8334 17.2222 10.5001 16.875C10.2362 16.5972 9.98285 16.3541 9.74007 16.1458C9.49674 15.9375 9.18757 15.8333 8.81257 15.8333C8.18757 15.8333 7.49312 15.7258 6.72923 15.5108C5.96535 15.2952 5.24674 14.9408 4.5734 14.4475C3.89951 13.9547 3.3334 13.3125 2.87507 12.5208C2.41673 11.7291 2.18062 10.7569 2.16674 9.60413C2.13896 7.28468 2.71173 5.3819 3.88507 3.89579C5.05896 2.40968 6.70146 1.66663 8.81257 1.66663C9.79868 1.66663 10.632 1.80885 11.3126 2.09329C11.9931 2.37829 12.5801 2.73607 13.0734 3.16663C13.5662 3.59718 13.9826 4.07274 14.3226 4.59329C14.6631 5.1144 14.9862 5.61801 15.2917 6.10413C15.4584 6.3819 15.6251 6.63524 15.7917 6.86413C15.9584 7.09357 16.139 7.30551 16.3334 7.49996C17.1667 8.33329 17.7917 9.06246 18.2084 9.68746C18.6251 10.3125 18.8334 11.2569 18.8334 12.5208C18.8334 14.1875 18.3162 15.5727 17.2817 16.6766C16.2467 17.7811 15.0973 18.3333 13.8334 18.3333ZM13.8334 16.6666C14.6251 16.6666 15.3784 16.2741 16.0934 15.4891C16.809 14.7047 17.1667 13.7152 17.1667 12.5208C17.1667 11.6041 17.0315 10.9305 16.7609 10.5C16.4898 10.0694 15.9584 9.45829 15.1667 8.66663C14.8751 8.38885 14.6148 8.07968 14.3859 7.73913C14.1565 7.39913 13.9237 7.04857 13.6876 6.68746C13.1181 5.78468 12.514 4.99996 11.8751 4.33329C11.2362 3.66663 10.2153 3.33329 8.81257 3.33329C7.0209 3.33329 5.73618 3.97551 4.9584 5.25996C4.18062 6.54496 3.80562 7.98607 3.8334 9.58329C3.84729 10.5138 4.04868 11.2777 4.43757 11.875C4.82646 12.4722 5.2884 12.9411 5.8234 13.2816C6.35785 13.6216 6.90285 13.8541 7.4584 13.9791C8.01396 14.1041 8.46535 14.1666 8.81257 14.1666C9.5209 14.1666 10.0903 14.3369 10.5209 14.6775C10.9515 15.0175 11.3056 15.3333 11.5834 15.625C11.889 15.9444 12.1842 16.198 12.4692 16.3858C12.7537 16.573 13.2084 16.6666 13.8334 16.6666ZM10.5001 12.9166C11.3056 12.9166 11.9931 12.6319 12.5626 12.0625C13.132 11.493 13.4167 10.8055 13.4167 9.99996C13.4167 9.1944 13.132 8.5069 12.5626 7.93746C11.9931 7.36801 11.3056 7.08329 10.5001 7.08329C9.69451 7.08329 9.00701 7.36801 8.43757 7.93746C7.86812 8.5069 7.5834 9.1944 7.5834 9.99996C7.5834 10.8055 7.86812 11.493 8.43757 12.0625C9.00701 12.6319 9.69451 12.9166 10.5001 12.9166Z" fill="#1C1B1F"/>
</g>
</svg>
